<svg width="20" height="22" viewBox="0 0 20 22" fill="none" xmlns="http://www.w3.org/2000/svg">
<path d="M11.9267 21.3065C14.8317 18.8933 20 13.9631 20 9.43877C20 6.93545 18.9464 4.53467 17.0711 2.76455C15.1957 0.994439 12.6522 0 10 0C7.34784 0 4.8043 0.994439 2.92893 2.76455C1.05357 4.53467 3.95203e-08 6.93545 0 9.43877C0 13.9631 5.16667 18.8933 8.07333 21.3065C8.60352 21.7531 9.28933 22 10 22C10.7107 22 11.3965 21.7531 11.9267 21.3065ZM6.66667 9.43877C6.66667 8.60433 7.01786 7.80407 7.64298 7.21403C8.2681 6.62399 9.11594 6.29251 10 6.29251C10.8841 6.29251 11.7319 6.62399 12.357 7.21403C12.9821 7.80407 13.3333 8.60433 13.3333 9.43877C13.3333 10.2732 12.9821 11.0735 12.357 11.6635C11.7319 12.2535 10.8841 12.585 10 12.585C9.11594 12.585 8.2681 12.2535 7.64298 11.6635C7.01786 11.0735 6.66667 10.2732 6.66667 9.43877Z" fill="white"/>
</svg>
