<svg width="20" height="22" viewBox="0 0 20 22" fill="none" xmlns="http://www.w3.org/2000/svg">
<path d="M10 0C8.48448 0 7.03103 0.579463 5.95939 1.61091C4.88775 2.64236 4.28571 4.04131 4.28571 5.5C4.28571 6.95869 4.88775 8.35764 5.95939 9.38909C7.03103 10.4205 8.48448 11 10 11C11.5155 11 12.969 10.4205 14.0406 9.38909C15.1122 8.35764 15.7143 6.95869 15.7143 5.5C15.7143 4.04131 15.1122 2.64236 14.0406 1.61091C12.969 0.579463 11.5155 0 10 0ZM2.87 12.375C2.49377 12.3736 2.12094 12.4436 1.77289 12.5811C1.42485 12.7187 1.10843 12.921 0.841799 13.1765C0.575163 13.432 0.36355 13.7356 0.219095 14.07C0.0746398 14.4043 0.000185017 14.7629 0 15.125C0 17.4501 1.19 19.2033 3.05 20.3459C4.88143 21.4693 7.35 22 10 22C12.65 22 15.1186 21.4693 16.95 20.3459C18.81 19.2046 20 17.4487 20 15.125C20 14.3957 19.699 13.6962 19.1632 13.1805C18.6273 12.6647 17.9006 12.375 17.1429 12.375H2.87Z" fill="black"/>
</svg>
