<svg width="61" height="56" viewBox="0 0 61 56" fill="none" xmlns="http://www.w3.org/2000/svg">
<path d="M41.4736 1.49634L41.1859 0.541014L41.4736 1.49634C42.5605 1.16905 43.7721 1 45.116 1C47.3802 1 49.3545 1.40863 51.0604 2.20023C52.799 3.00704 54.2481 4.08327 55.4217 5.42642C56.6078 6.784 57.5128 8.3352 58.1366 10.0878C58.7623 11.8454 59.076 13.6805 59.076 15.5985C59.076 18.724 58.8261 21.9057 58.3251 25.1442C57.8239 28.384 57.0913 31.5981 56.1269 34.7869C55.1647 37.9681 53.9524 41.0519 52.4899 44.0388C51.0274 47.0256 49.364 49.8426 47.5 52.4906C47.1243 53.0066 46.649 53.4153 46.0617 53.7214C45.4887 54.0201 44.8565 54.1739 44.148 54.1739C43.2551 54.1739 42.4776 53.9459 41.7872 53.4992C41.11 53.061 40.6566 52.4845 40.3987 51.7461L40.3988 51.746L40.3942 51.7335L35.1728 37.4012L34.9055 36.6674L34.1288 36.749C33.4712 36.818 32.8033 36.8612 32.1251 36.8785L30.0258 36.9321C29.3345 36.932 28.6433 36.9231 27.952 36.9055C27.2823 36.8884 26.623 36.8372 25.9739 36.752L25.1788 36.6477L24.9043 37.4012L19.6829 51.7335L19.6804 51.7404C19.4244 52.4596 18.9723 53.0307 18.2899 53.4723C17.5967 53.9208 16.8156 54.1576 15.9209 54.1739C15.2157 54.1727 14.5862 54.019 14.0154 53.7214L13.5531 54.6082L14.0154 53.7214C13.427 53.4147 12.9509 53.005 12.5748 52.4875C10.6932 49.8598 9.03137 47.0545 7.58948 44.0705C6.14554 41.0822 4.94229 37.9968 3.97958 34.8138C3.01458 31.6233 2.27185 28.4072 1.75106 25.1654C1.23145 21.9309 0.981824 18.7442 1.00103 15.6046H1.00105V15.5985C1.00105 13.6995 1.31447 11.8733 1.94048 10.1147C2.56433 8.36214 3.46926 6.81094 4.65544 5.45336C5.82903 4.11021 7.27805 3.03398 9.01669 2.22717C10.7243 1.43477 12.7001 1.0175 14.9649 1C16.2651 1.00032 17.4678 1.16858 18.5784 1.49761C19.7735 1.85166 20.9689 2.24124 22.1649 2.66641C23.3922 3.10276 24.6105 3.50302 25.8195 3.86709C27.1184 4.25822 28.5273 4.44837 30.0385 4.44837C31.5138 4.44837 32.9108 4.25743 34.224 3.86837C35.4538 3.504 36.6833 3.10333 37.9122 2.66641C39.1098 2.24067 40.2969 1.85067 41.4736 1.49634Z" stroke="white" stroke-width="2"/>
<path d="M13.8637 9.09457L46.2123 18.1892M13.8637 18.1892L46.2123 9.09457" stroke="white" stroke-width="2" stroke-linecap="round"/>
</svg>
